<svg xmlns="http://www.w3.org/2000/svg" xmlns:xlink="http://www.w3.org/1999/xlink" width="47" height="17" version="1.1" viewBox="0 0 47 17">
    <g id="Canvas" transform="translate(400 -2001)">
        <g id="Group">
            <g id="Vector">
                <path class="logo-primary-color" transform="translate(-377.384 2001)" id="path0__fill" d="M 10.0494 4.18532L 6.15309 4.18532C 2.75386 4.18532 4.89322e-07 7.05204 4.89322e-07 10.5906C 4.89322e-07 14.1291 2.75386 16.9958 6.15309 16.9958L 10.0494 16.9958L 10.0494 17L 12.3663 17L 12.3663 0L 10.0494 0L 10.0494 4.18532ZM 10.0494 14.3461L 6.11701 14.3461C 4.10072 14.3461 2.46925 12.6478 2.46925 10.5488C 2.46925 8.44993 4.10072 6.7516 6.11701 6.7516L 10.0494 6.74742L 10.0494 14.3461Z"/>
            </g>
            <g id="Vector">
                <path class="logo-primary-color" transform="translate(-400 2005.19)" id="path1__fill" d="M 15.1322 1.27344e-07C 13.6691 1.27344e-07 12.3423 0.62592 11.3882 1.63157C 10.4342 0.62592 9.11139 1.27344e-07 7.64426 1.27344e-07C 6.51787 1.27344e-07 5.47565 0.367207 4.61783 0.9973L 4.61783 1.27344e-07L 4.60981 1.27344e-07L 2.39309 1.27344e-07L 0 1.27344e-07L 0.597271 2.27418L 2.39309 2.27418L 2.39309 12.8063L 4.62183 12.8063L 4.62183 5.23687C 4.73808 3.6053 6.04887 2.31173 7.64827 2.31173C 8.7426 2.31173 9.70064 2.91679 10.2338 3.82229L 10.2338 12.8105L 12.5507 12.8105L 12.5507 3.8056C 13.0878 2.90844 14.0419 2.31173 15.1282 2.31173C 16.7997 2.31173 18.1626 3.73049 18.1626 5.47054L 18.1586 5.47054L 18.1586 12.8105L 20.3874 12.8105L 20.3874 5.47054C 20.3874 2.44943 18.0384 1.27344e-07 15.1322 1.27344e-07Z"/>
            </g>
            <g id="Vector">
                <path class="logo-primary-color" transform="translate(-362.516 2001.02)" id="path2__fill" d="M 5.84444 14.3878C 3.98448 14.3878 2.46925 12.8105 2.46925 10.8743L 2.48128 10.8743L 2.48128 7.39421L 2.48128 6.74325L 6.43369 6.74325L 7.10712 4.18532L 2.48128 4.18532L 2.48128 2.70815L 2.48128 2.48718e-10L -9.78645e-07 2.48718e-10L -9.78645e-07 2.70815L -9.78645e-07 4.18115L -9.78645e-07 7.2273L -9.78645e-07 8.48748L -9.78645e-07 8.62936L -9.78645e-07 10.8743C -9.78645e-07 14.2376 2.61757 16.9624 5.84844 16.9624L 8.85885 16.9624L 9.51625 14.3878L 5.84444 14.3878Z"/>
            </g>
        </g>
    </g>
</svg>